<svg xmlns="http://www.w3.org/2000/svg" xml:space="preserve" id="Layer_1" x="0" y="0" style="enable-background:new 0 0 487.95 194.55" version="1.1" viewBox="0 0 487.95 194.55">
  <style>
    .st1{fill:#e9c46a}.st2{fill:#f4a261}.st3{fill:#e76f51}
  </style>
  <path d="M109.59 123.66c-1.34-8.74-3.71-15.62-7.13-20.63-5.61-8.22-19.21-18.74-40.81-31.56-7.53-4.45-12.1-8.25-13.71-11.41-1.69-3.15-2.53-7.84-2.53-14.07 0-4.85.75-8.46 2.25-10.84 1.5-2.38 3.71-3.58 6.63-3.58 2.69 0 4.61.88 5.76 2.65 1.15 1.77 1.73 5.88 1.73 12.33v13.83h45.06V53c0-14.83-1.44-25.34-4.32-31.52-2.88-6.18-8.76-11.31-17.63-15.39C76.01 2.04 65.27 0 52.67 0c-11.53 0-21.36 1.86-29.5 5.59-8.14 3.73-14.04 8.89-17.69 15.5C1.82 27.7 0 38.15 0 52.44c0 9.91 1.29 18.06 3.86 24.43 2.57 6.38 5.82 11.37 9.74 14.98 3.92 3.61 11.91 9.41 23.97 17.4 9.43 6.19 16.11 10.99 20.05 14.4l.27.24h51.73c-.01-.07-.02-.15-.03-.23zm23-8.09c1.69 0 3.49-.26 5.41-.77 1.92-.52 3.77-1.24 5.55-2.18l2.43 8.33c-2.23 1.31-4.61 2.25-7.14 2.81s-4.96.84-7.28.84c-5.16 0-9.18-1.33-12.08-3.99-2.9-2.66-4.34-6.36-4.34-11.09 0-4.73.95-8.87 2.85-12.39s4.55-6.28 7.96-8.24c3.41-1.97 7.39-2.95 11.94-2.95 3.84 0 6.85.96 9.02 2.88s3.25 4.59 3.25 8.02c0 4.52-2.32 7.84-6.96 9.95s-11.41 3.23-20.32 3.38l-1.44-6.68c6.09-.05 10.84-.59 14.24-1.63 3.4-1.04 5.1-2.47 5.1-4.27 0-.91-.4-1.63-1.2-2.14-.8-.52-1.92-.77-3.38-.77-2.41 0-4.54.57-6.36 1.72s-3.25 2.75-4.27 4.82-1.54 4.46-1.56 7.21c.02 2.25.79 4.01 2.3 5.27s3.61 1.87 6.28 1.87zM152 123.9l1.44-8.16h26.09l-1.44 8.16H152zm7.87 0 4.36-24.85c.26-1.38.15-2.41-.33-3.08-.48-.67-1.38-1-2.69-1-1.78 0-3.69.27-5.73.81l-1.09-8.51c1.66-.45 3.3-.78 4.9-1 1.6-.22 3.2-.33 4.8-.33 4.12 0 6.96 1.21 8.51 3.64s1.9 6.05 1.05 10.88l-4.11 23.45h-9.67zm12.83-17.96.46-11.5h1.93c.82-2.72 2.14-4.82 3.97-6.29s4.12-2.21 6.89-2.21c3.75 0 6.38 1.28 7.89 3.85s1.86 6.35 1.04 11.34h-9.7c.33-1.99.18-3.52-.46-4.57s-1.66-1.58-3.09-1.58c-1.34 0-2.6.34-3.8 1.02s-2.24 1.82-3.13 3.43c-.88 1.59-1.55 3.76-2 6.51zm31.93 17.96-4.39-37.27 9.91-.7 2.88 28.9h.77c3.8-3.68 6.68-7.86 8.65-12.53s3.06-9.9 3.27-15.66h9.74c-.3 7.66-2.08 14.6-5.33 20.79-3.25 6.2-8.01 11.69-14.29 16.47h-11.21zm54.52-8.33c1.69 0 3.49-.26 5.41-.77 1.92-.52 3.77-1.24 5.55-2.18l2.43 8.33c-2.23 1.31-4.61 2.25-7.14 2.81s-4.96.84-7.28.84c-5.16 0-9.18-1.33-12.08-3.99-2.9-2.66-4.34-6.36-4.34-11.09 0-4.73.95-8.87 2.85-12.39 1.9-3.53 4.55-6.28 7.96-8.24s7.39-2.95 11.94-2.95c3.84 0 6.85.96 9.02 2.88s3.25 4.59 3.25 8.02c0 4.52-2.32 7.84-6.96 9.95s-11.41 3.23-20.32 3.38l-1.44-6.68c6.09-.05 10.84-.59 14.24-1.63 3.4-1.04 5.1-2.47 5.1-4.27 0-.91-.4-1.63-1.2-2.14-.8-.52-1.92-.77-3.38-.77-2.41 0-4.54.57-6.36 1.72-1.83 1.15-3.25 2.75-4.27 4.82s-1.54 4.46-1.56 7.21c.02 2.25.79 4.01 2.3 5.27s3.61 1.87 6.28 1.87zm19.41 8.33 1.44-8.16h26.09l-1.44 8.16h-26.09zm7.87 0 4.36-24.85c.26-1.38.15-2.41-.33-3.08-.48-.67-1.38-1-2.69-1-1.78 0-3.69.27-5.73.81l-1.09-8.51c1.66-.45 3.3-.78 4.9-1 1.6-.22 3.2-.33 4.8-.33 4.12 0 6.96 1.21 8.51 3.64s1.9 6.05 1.05 10.88l-4.11 23.45h-9.67zm12.84-17.96.46-11.5h1.93c.82-2.72 2.14-4.82 3.97-6.29s4.12-2.21 6.89-2.21c3.75 0 6.38 1.28 7.89 3.85s1.86 6.35 1.04 11.34h-9.7c.33-1.99.18-3.52-.46-4.57s-1.67-1.58-3.09-1.58c-1.34 0-2.6.34-3.8 1.02s-2.24 1.82-3.13 3.43c-.89 1.59-1.56 3.76-2 6.51zm48.9 18.66c-4.69 0-8.22-1.06-10.6-3.18-2.38-2.12-3.57-5.31-3.57-9.58 0-.75.11-1.86.33-3.34.22-1.48.7-3.55 1.42-6.22l4.68-17.3c.47-1.78.35-3.14-.35-4.08s-1.83-1.41-3.38-1.41c-1.12 0-2.26.06-3.39.19-1.14.13-2.27.33-3.39.62l-1.44-8.86c1.73-.4 3.47-.66 5.2-.79s3.47-.19 5.2-.19c4.76 0 8.15 1.23 10.18 3.69 2.03 2.46 2.38 6.07 1.07 10.83l-4.71 17.3c-.68 2.51-1.13 4.42-1.35 5.73-.22 1.31-.33 2.24-.33 2.78-.05 3.19 2.12 4.78 6.5 4.78 1.29 0 2.43-.15 3.41-.44s2.16-.79 3.52-1.49l2.43 8.37c-1.64.73-3.37 1.34-5.19 1.85-1.82.49-3.9.74-6.24.74zm37.55-9.03c1.69 0 3.49-.26 5.41-.77 1.92-.52 3.77-1.24 5.55-2.18l2.43 8.33c-2.23 1.31-4.61 2.25-7.14 2.81s-4.96.84-7.28.84c-5.16 0-9.18-1.33-12.08-3.99-2.9-2.66-4.34-6.36-4.34-11.09 0-4.73.95-8.87 2.85-12.39s4.55-6.28 7.96-8.24 7.39-2.95 11.94-2.95c3.84 0 6.85.96 9.02 2.88s3.25 4.59 3.25 8.02c0 4.52-2.32 7.84-6.96 9.95s-11.41 3.23-20.32 3.38l-1.44-6.68c6.09-.05 10.84-.59 14.24-1.63 3.4-1.04 5.1-2.47 5.1-4.27 0-.91-.4-1.63-1.2-2.14-.8-.52-1.92-.77-3.38-.77-2.41 0-4.54.57-6.36 1.72s-3.25 2.75-4.27 4.82-1.54 4.46-1.56 7.21c.02 2.25.79 4.01 2.3 5.27s3.6 1.87 6.28 1.87zm35.26 9.03c-2.77 0-5.24-.09-7.44-.26-2.19-.18-4.1-.44-5.71-.79l2.74-9.11c3 .38 5.5.66 7.49.84 1.99.19 3.49.28 4.5.28 3.21 0 5.61-.29 7.19-.86s2.37-1.44 2.37-2.58c0-.38-.16-.67-.47-.9s-.77-.42-1.35-.58l-12.9-3.94c-1.64-.49-2.85-1.32-3.64-2.48s-1.18-2.6-1.18-4.31c0-4.69 1.9-8.19 5.71-10.51 3.81-2.32 9.53-3.48 17.17-3.48 1.57 0 3.21.06 4.92.18s3.5.29 5.38.53l-2.57 8.82c-1.95-.16-3.71-.29-5.29-.37s-2.99-.12-4.24-.12c-3.68 0-6.43.28-8.24.83-1.82.55-2.72 1.39-2.72 2.51 0 .35.15.64.46.86.3.22.74.42 1.3.58l9.91 2.88c2.69.8 4.72 1.92 6.08 3.38 1.36 1.45 2.04 3.27 2.04 5.45 0 4.38-1.79 7.67-5.36 9.86-3.57 2.2-8.96 3.29-16.15 3.29zm42.18 0c-2.77 0-5.24-.09-7.44-.26-2.19-.18-4.1-.44-5.71-.79l2.74-9.11c3 .38 5.5.66 7.49.84 1.99.19 3.49.28 4.5.28 3.21 0 5.61-.29 7.19-.86s2.37-1.44 2.37-2.58c0-.38-.16-.67-.47-.9s-.77-.42-1.35-.58l-12.9-3.94c-1.64-.49-2.85-1.32-3.64-2.48s-1.18-2.6-1.18-4.31c0-4.69 1.9-8.19 5.71-10.51 3.81-2.32 9.53-3.48 17.17-3.48 1.57 0 3.21.06 4.92.18s3.5.29 5.38.53l-2.57 8.82c-1.95-.16-3.71-.29-5.29-.37s-2.99-.12-4.24-.12c-3.68 0-6.43.28-8.24.83-1.82.55-2.72 1.39-2.72 2.51 0 .35.15.64.46.86.3.22.74.42 1.3.58l9.91 2.88c2.69.8 4.72 1.92 6.08 3.38 1.36 1.45 2.04 3.27 2.04 5.45 0 4.38-1.79 7.67-5.36 9.86-3.57 2.2-8.95 3.29-16.15 3.29z" style="fill:#2a9d8f"/>
  <path d="M125.66 183.84c-2.77 0-5.24-.09-7.44-.26-2.19-.18-4.1-.44-5.71-.79l2.74-9.11c3 .38 5.5.66 7.49.84 1.99.19 3.49.28 4.5.28 3.21 0 5.61-.29 7.19-.86s2.37-1.44 2.37-2.58c0-.38-.16-.67-.47-.9s-.77-.42-1.35-.58l-12.9-3.94c-1.64-.49-2.85-1.32-3.64-2.48s-1.18-2.6-1.18-4.31c0-4.69 1.9-8.19 5.71-10.51 3.81-2.32 9.53-3.48 17.17-3.48 1.57 0 3.21.06 4.92.18s3.5.29 5.38.53l-2.57 8.82c-1.95-.16-3.71-.29-5.29-.37s-2.99-.12-4.24-.12c-3.68 0-6.43.28-8.24.83-1.82.55-2.72 1.39-2.72 2.51 0 .35.15.64.46.86.3.22.74.42 1.3.58l9.91 2.88c2.69.8 4.72 1.92 6.08 3.38 1.36 1.45 2.04 3.27 2.04 5.45 0 4.38-1.79 7.67-5.36 9.86-3.57 2.19-8.95 3.29-16.15 3.29zm49.12-9.04c1.69 0 3.49-.26 5.41-.77 1.92-.52 3.77-1.24 5.55-2.18l2.43 8.33c-2.23 1.31-4.61 2.25-7.14 2.81s-4.96.84-7.28.84c-5.16 0-9.18-1.33-12.08-3.99-2.9-2.66-4.34-6.36-4.34-11.09s.95-8.87 2.85-12.39 4.55-6.28 7.96-8.24 7.39-2.95 11.94-2.95c3.84 0 6.85.96 9.02 2.88s3.25 4.59 3.25 8.02c0 4.52-2.32 7.84-6.96 9.95s-11.41 3.23-20.32 3.38l-1.44-6.68c6.09-.05 10.84-.59 14.24-1.63 3.4-1.04 5.1-2.47 5.1-4.27 0-.91-.4-1.63-1.2-2.14-.8-.52-1.92-.77-3.38-.77-2.41 0-4.54.57-6.36 1.72s-3.25 2.75-4.27 4.82-1.54 4.46-1.56 7.21c.02 2.25.79 4.01 2.3 5.27s3.61 1.87 6.28 1.87z" class="st1"/>
  <path d="M287.98 169.28h11.95v11.95h-11.95z" class="st2"/>
  <path d="M325.41 166.29h14.93v14.93h-14.93z" class="st3"/>
  <path d="M252.94 171.66h9.56v9.56h-9.56zm-33.12 1.92h7.65v7.65h-7.65z" class="st2"/>
  <path d="M365.82 162.56h18.67v18.67h-18.67zm44.15-4.67h23.33v23.33h-23.33zm48.82-5.83h29.16v29.16h-29.16z" class="st3"/>
  <path d="M103.86 164.1h5.08v5.07h-5.08zm0-6.35h5.08v5.08h-5.08zm0-6.34h5.08v5.07h-5.08zm0-6.35h5.08v5.08h-5.08zm0-6.34h5.08v5.07h-5.08zm0-6.34h5.08v5.07h-5.08zm0-6.35h5.08v5.08h-5.08zm-6.34 44.41h5.07v5.07h-5.07zm0-6.34h5.07v5.07h-5.07zm0-6.35h5.07v5.08h-5.07zm0-6.34h5.07v5.07h-5.07zm0-6.35h5.07v5.08h-5.07zm0-6.34h5.07v5.07h-5.07zm0-6.34h5.07v5.07h-5.07zm0-6.35h5.07v5.08h-5.07zm-6.35 50.75h5.08v5.08h-5.08zm0-6.34h5.08v5.07h-5.08zm0-6.34h5.08v5.07h-5.08zm0-6.35h5.08v5.08h-5.08zm0-6.34h5.08v5.07h-5.08zm0-6.35h5.08v5.08h-5.08zm0-6.34h5.08v5.07h-5.08zm0-6.34h5.08v5.07h-5.08zm0-6.35h5.08v5.08h-5.08zm-6.34 57.1h5.07v5.07h-5.07zm0-6.35h5.07v5.08h-5.07zm0-6.34h5.07v5.07h-5.07zm0-6.34h5.07v5.07h-5.07zm0-6.35h5.07v5.08h-5.07zm0-6.34h5.07v5.07h-5.07zm0-6.35h5.07v5.08h-5.07zm0-6.34h5.07v5.07h-5.07zm0-6.34h5.07v5.07h-5.07zm0-6.35h5.07v5.08h-5.07zm-6.34 57.1h5.07v5.07h-5.07zm0-6.35h5.07v5.08h-5.07zm0-6.34h5.07v5.07h-5.07zm0-6.34h5.07v5.07h-5.07zm0-6.35h5.07v5.08h-5.07zm0-6.34h5.07v5.07h-5.07zm0-6.35h5.07v5.08h-5.07zm0-6.34h5.07v5.07h-5.07zm0-6.34h5.07v5.07h-5.07zm0-6.35h5.07v5.08h-5.07zm-6.35 63.44h5.08v5.08h-5.08zm0-6.34h5.08v5.07h-5.08zm0-6.35h5.08v5.08h-5.08zm0-6.34h5.08v5.07h-5.08zm0-6.34h5.08v5.07h-5.08zm0-6.35h5.08v5.08h-5.08zm0-6.34h5.08v5.07h-5.08zm0-6.35h5.08v5.08h-5.08zm0-6.34h5.08v5.07h-5.08zm0-6.34h5.08v5.07h-5.08zm0-6.35h5.08v5.08h-5.08zm-6.34 63.44h5.07v5.08H65.8zm0-6.34h5.07v5.07H65.8zm0-6.35h5.07v5.08H65.8zm0-6.34h5.07v5.07H65.8zm0-6.34h5.07v5.07H65.8zm0-6.35h5.07v5.08H65.8zm0-6.34h5.07v5.07H65.8zm0-6.35h5.07v5.08H65.8zm0-6.34h5.07v5.07H65.8zm0-6.34h5.07v5.07H65.8zm0-6.35h5.07v5.08H65.8zm-6.35 0h5.07v5.08h-5.07zm0 63.44h5.08v5.08h-5.08zm0-6.34h5.08v5.07h-5.08zm0-6.35h5.08v5.08h-5.08zm0-6.34h5.08v5.07h-5.08zm0-6.34h5.08v5.07h-5.08zm-6.34 25.37h5.07v5.08h-5.07zm0-6.34h5.07v5.07h-5.07zm0-6.35h5.07v5.08h-5.07zm0-6.34h5.07v5.07h-5.07zm0-6.34h5.07v5.07h-5.07zm-6.34 25.37h5.07v5.08h-5.07zm0-6.34h5.07v5.07h-5.07zm0-6.35h5.07v5.08h-5.07zm0-6.34h5.07v5.07h-5.07zm0-6.34h5.07v5.07h-5.07zm-6.35 25.37h5.08v5.08h-5.08zm0-6.34h5.08v5.07h-5.08zm0-6.35h5.08v5.08h-5.08zm0-6.34h5.08v5.07h-5.08zm0-6.34h5.08v5.07h-5.08zm0-6.35h5.08v5.08h-5.08zm0-6.34h5.08v5.07h-5.08zm0-6.35h5.08v5.08h-5.08zm0-6.34h5.08v5.07h-5.08zm0-6.34h5.08v5.07h-5.08zm0-6.35h5.08v5.08h-5.08zm-6.34 63.44h5.07v5.08h-5.07zm0-6.34h5.07v5.07h-5.07zm0-6.35h5.07v5.08h-5.07zm0-6.34h5.07v5.07h-5.07zm0-6.34h5.07v5.07h-5.07zm0-6.35h5.07v5.08h-5.07zm0-6.34h5.07v5.07h-5.07zm0-6.35h5.07v5.08h-5.07zm0-6.34h5.07v5.07h-5.07zm0-6.34h5.07v5.07h-5.07zm0-6.35h5.07v5.08h-5.07zm-6.35 57.1h5.08v5.07h-5.08zm0-6.35h5.08v5.08h-5.08zm0-6.34h5.08v5.07h-5.08zm0-6.34h5.08v5.07h-5.08zm0-6.35h5.08v5.08h-5.08zm0-6.34h5.08v5.07h-5.08zm0-6.35h5.08v5.08h-5.08zm0-6.34h5.08v5.07h-5.08zm0-6.34h5.08v5.07h-5.08zm0-6.35h5.08v5.08h-5.08zm-6.34 57.1h5.07v5.07h-5.07zm0-6.35h5.07v5.08h-5.07zm0-6.34h5.07v5.07h-5.07zm0-6.34h5.07v5.07h-5.07zm0-6.35h5.07v5.08h-5.07zm0-6.34h5.07v5.07h-5.07zm0-6.35h5.07v5.08h-5.07zm0-6.34h5.07v5.07h-5.07zm0-6.34h5.07v5.07h-5.07zm0-6.35h5.07v5.08h-5.07zm-6.34 50.75h5.07v5.08h-5.07zm0-6.34h5.07v5.07h-5.07zm0-6.34h5.07v5.07h-5.07zm0-6.35h5.07v5.08h-5.07zm0-6.34h5.07v5.07h-5.07zm0-6.35h5.07v5.08h-5.07zm0-6.34h5.07v5.07h-5.07zm0-6.34h5.07v5.07h-5.07zm0-6.35h5.07v5.08h-5.07zM8.7 170.44h5.08v5.07H8.7zm0-6.34h5.08v5.07H8.7zm0-6.35h5.08v5.08H8.7zm0-6.34h5.08v5.07H8.7zm0-6.35h5.08v5.08H8.7zm0-6.34h5.08v5.07H8.7zm0-6.34h5.08v5.07H8.7zm0-6.35h5.08v5.08H8.7zm-6.34 31.72h5.07v5.08H2.36zm0-6.34h5.07v5.07H2.36zm0-6.35h5.07v5.08H2.36zm0-6.34h5.07v5.07H2.36zm0-6.34h5.07v5.07H2.36zm0-6.35h5.07v5.08H2.36z" class="st1"/>
</svg>
